<svg xmlns="http://www.w3.org/2000/svg" width="45" height="30" viewBox="0 0 45 30">
    <g fill="#FFF" fill-rule="evenodd">
        <path fill-rule="nonzero" d="M40.997 29.605c-2.059 0-3.28-1.048-3.374-2.557h1.97c0 .503.28 1.172 1.498 1.214.844 0 1.311-.503 1.311-.881-.093-.586-.844-.628-1.592-.756-.844-.122-1.498-.292-1.969-.5-.654-.336-1.03-1.051-1.03-1.804 0-1.342 1.127-2.39 3.093-2.39 1.875 0 3.094.964 3.184 2.432h-1.872c0-.375-.094-1.006-1.219-1.006-.75 0-1.218.125-1.311.67 0 .755 1.592.714 2.81 1.005 1.125.295 1.875 1.006 1.875 2.016 0 1.845-1.498 2.557-3.374 2.557M5.117 17.223l6.465-3.733 3.467 5.914H6.335"/>
        <path d="M17.754 21.981v7.463h1.886v-7.463z"/>
        <path fill-rule="nonzero" d="M2.117 25.76c0 1.172 1.031 2.137 2.153 2.137a2.132 2.132 0 0 0 2.156-2.137 2.158 2.158 0 0 0-2.156-2.137c-1.122 0-2.153 1.006-2.153 2.137m2.06 3.857c-2.06 0-3.839-1.72-3.839-3.857 0-2.137 1.779-3.816 3.838-3.816.844 0 1.595.211 2.25.67v-.587H8.3v7.42H6.426v-.46c-.561.419-1.406.63-2.25.63M29.197 19.403L20.203 3.806 26.668.03 37.91 19.403M10.737 25.76c0 1.172.938 2.137 2.156 2.137 1.122 0 2.156-.965 2.156-2.137 0-1.131-1.034-2.137-2.156-2.137a2.16 2.16 0 0 0-2.156 2.137m2.063 3.857c-2.156 0-3.842-1.72-3.842-3.857 0-2.137 1.686-3.816 3.842-3.816.84 0 1.592.211 2.25.67V19.47h1.871v9.978H15.05v-.462c-.657.42-1.408.631-2.25.631M12.707 10.556l6.558-3.688 7.216 12.534h-6.842v1.846h-1.872v-1.846M43.157 21.306c-.471 0-.938-.42-.938-.923 0-.503.467-.922.938-.922.56 0 .937.42.937.922a.908.908 0 0 1-.937.923m0-1.717c-.471 0-.751.375-.751.794 0 .42.28.798.75.798.468 0 .748-.378.748-.798 0-.42-.28-.794-.747-.794"/>
        <path fill-rule="nonzero" d="M43.35 20.89l-.187-.42h-.187v.42h-.142v-1.007h.422c.094 0 .28.129.28.295 0 .167-.093.25-.186.292l.187.42m-.374-.878h-.187v.333h.187c.187 0 .187-.042.187-.167 0-.086 0-.166-.187-.166M30.782 25.76c0 1.172.938 2.137 2.156 2.137 1.124 0 2.152-.965 2.152-2.137 0-1.131-1.028-2.137-2.152-2.137a2.16 2.16 0 0 0-2.156 2.137m2.059 3.857c-2.153 0-3.838-1.72-3.838-3.857 0-2.137 1.685-3.816 3.838-3.816.844 0 1.595.211 2.25.67v-.587h1.781v7.42H35.09v-.46c-.654.419-1.405.63-2.249.63M22.168 25.76c0 1.172 1.031 2.137 2.156 2.137a2.134 2.134 0 0 0 2.156-2.137 2.16 2.16 0 0 0-2.156-2.137c-1.125 0-2.156 1.006-2.156 2.137zm4.312-6.29h1.872v9.978H26.48v-.462c-.564.42-1.315.631-2.156.631-2.156 0-3.935-1.72-3.935-3.857 0-2.137 1.779-3.816 3.935-3.816.84 0 1.592.211 2.156.67V19.47z"/>
    </g>
</svg>
